<?xml version="1.0" encoding="UTF-8"?>
<svg width="14px" height="14px" viewBox="0 0 14 14" version="1.1" xmlns="http://www.w3.org/2000/svg" xmlns:xlink="http://www.w3.org/1999/xlink">
    <title>切片</title>
    <g id="sifubuy首页" stroke="none" stroke-width="1" fill="none" fill-rule="evenodd">
        <g id="首页改版" transform="translate(-209.000000, -965.000000)">
            <g id="编组-31" transform="translate(119.000000, 845.000000)">
                <g id="编组-13" transform="translate(24.000000, 117.000000)">
                    <g id="编组-27" transform="translate(66.000000, 3.000000)">
                        <circle id="椭圆形" stroke="#787878" stroke-width="0.6" cx="7" cy="7" r="6.7"></circle>
                        <g id="箭头" transform="translate(6.500000, 7.000000) rotate(90.000000) translate(-6.500000, -7.000000) translate(3.000000, 3.000000)" fill="currentColor">
                            <path d="M6.82910957,3.02452455 L3.91240137,0.167357517 C3.68460788,-0.055785839 3.31534681,-0.055785839 3.08755332,0.167357517 L0.170845119,3.02452455 C-0.0569483731,3.2476679 -0.0569483731,3.60939094 0.170845119,3.8325343 C0.398638611,4.05567765 0.767899678,4.05567765 0.995693171,3.8325343 L2.9166459,1.95079556 L2.9166459,7.42855994 C2.9166459,7.74427838 3.17769656,8 3.5,8 C3.82229211,8 4.08334277,7.74427838 4.08334277,7.42855994 L4.08334277,1.95079556 L6.0042955,3.8325343 C6.11804499,3.94397282 6.26738509,3.99996394 6.41672519,3.99996394 C6.56606529,3.99996394 6.71539406,3.94425022 6.82915488,3.8325343 C7.05694837,3.60939094 7.05694837,3.2476679 6.82915488,3.02452455 L6.82910957,3.02452455 Z" id="路径"></path>
                        </g>
                    </g>
                </g>
            </g>
        </g>
    </g>
</svg>
