<svg width="50" height="40" viewBox="0 0 50 40" fill="none" xmlns="http://www.w3.org/2000/svg">
<path d="M27.8499 10C28.5444 10 29.1843 10.3597 29.547 10.9416L29.6389 11.1057L30.4189 12.6659H32.6721C34.4393 12.6659 35.8854 14.0412 35.9983 15.78L36.0054 15.9992V26.6667C36.0054 28.434 34.63 29.8801 32.8912 29.9929L32.6721 30H18.0054C16.2381 30 14.792 28.6246 14.6792 26.8858L14.6721 26.6667V15.9992C14.6721 14.2319 16.0475 12.7858 17.7862 12.673L18.0054 12.6659H20.2581L21.044 11.1019C21.3552 10.4827 21.9622 10.0728 22.6436 10.0088L22.8311 10H27.8499ZM27.8499 11.3333H22.8311C22.621 11.3333 22.426 11.432 22.3013 11.5952L22.2354 11.7006L21.2648 13.6319C21.1705 13.8195 20.9947 13.9495 20.7929 13.9876L20.6691 13.9992H18.0054C16.9658 13.9992 16.1115 14.7924 16.0146 15.8066L16.0054 15.9992V26.6667C16.0054 27.7062 16.7986 28.5606 17.8128 28.6575L18.0054 28.6667H32.6721C33.7116 28.6667 34.566 27.8735 34.6629 26.8593L34.672 26.6667V15.9992C34.672 14.9596 33.8788 14.1053 32.8647 14.0083L32.6721 13.9992H30.0067C29.7963 13.9992 29.6009 13.9001 29.4763 13.7363L29.4105 13.6306L28.4463 11.7019C28.3522 11.5137 28.1762 11.3832 27.9739 11.3449L27.8499 11.3333ZM25.3325 15.3334C28.2779 15.3334 30.6658 17.7212 30.6658 20.6667C30.6658 23.6121 28.2779 26 25.3325 26C22.387 26 19.9991 23.6121 19.9991 20.6667C19.9991 17.7212 22.387 15.3334 25.3325 15.3334ZM25.3325 16.6667C23.1233 16.6667 21.3325 18.4576 21.3325 20.6667C21.3325 22.8759 23.1233 24.6667 25.3325 24.6667C27.5417 24.6667 29.3325 22.8759 29.3325 20.6667C29.3325 18.4576 27.5417 16.6667 25.3325 16.6667Z" fill="#676767"/>
</svg>
