<?xml version="1.0" encoding="UTF-8"?>
<svg width="22px" height="22px" viewBox="0 0 22 22" version="1.1" xmlns="http://www.w3.org/2000/svg" xmlns:xlink="http://www.w3.org/1999/xlink">
    <title>ic_pic</title>
    <g id="❤️我的订单&amp;我的仓库&amp;我的包裹" stroke="none" stroke-width="1" fill="none" fill-rule="evenodd">
        <g id="我的订单-精细拍照商品" transform="translate(-352.000000, -448.000000)" fill-rule="nonzero">
            <g id="编组-29" transform="translate(312.000000, 128.000000)">
                <g id="编组-6" transform="translate(24.000000, 152.000000)">
                    <g id="编组-10" transform="translate(0.000000, 32.000000)">
                        <g id="编组-10" transform="translate(16.000000, 136.000000)">
                            <path d="M13.596848,3.21428571 L15.4246887,5.53226404 L18.8823529,5.53246753 C19.2698805,5.53246753 19.6207208,5.6895441 19.8746793,5.94350255 C20.1286377,6.19746101 20.2857143,6.54830134 20.2857143,6.93582888 L20.2857143,6.93582888 L20.2857143,17.3823529 C20.2857143,17.7698805 20.1286377,18.1207208 19.8746793,18.3746793 C19.6207208,18.6286377 19.2698805,18.7857143 18.8823529,18.7857143 L18.8823529,18.7857143 L3.11764706,18.7857143 C2.73011952,18.7857143 2.37927919,18.6286377 2.12532074,18.3746793 C1.87136228,18.1207208 1.71428571,17.7698805 1.71428571,17.3823529 L1.71428571,17.3823529 L1.71428571,6.93582888 C1.71428571,6.54830134 1.87136228,6.19746101 2.12532074,5.94350255 C2.37927919,5.6895441 2.73011952,5.53246753 3.11768911,5.53246753 L3.11768911,5.53246753 L6.57415123,5.53226404 L8.12245576,3.35903384 L13.596848,3.21428571 Z" id="形状结合" stroke="#0BD5D2" stroke-width="1.42857143"></path>
                            <circle id="椭圆形" fill="currentColor" cx="17.5" cy="8.5" r="1"></circle>
                            <circle id="椭圆形" stroke="#0BD5D2"  stroke-width="1.42857143" cx="11" cy="12" r="3.78571429"></circle>
                        </g>
                    </g>
                </g>
            </g>
        </g>
    </g>
</svg>
