<svg width="31" height="20" viewBox="0 0 31 20" fill="none" xmlns="http://www.w3.org/2000/svg">
<rect x="1.29504" y="0.3125" width="29.1424" height="19.375" rx="2.1875" fill="black"/>
<rect x="1.29504" y="0.3125" width="29.1424" height="19.375" rx="2.1875" stroke="#D9D9D9" stroke-width="0.625"/>
<path d="M18.4136 5.578H13.3181V14.4223H18.4136V5.578Z" fill="#FF5F00"/>
<path d="M13.6416 10.0014C13.6406 9.14946 13.8404 8.30853 14.2258 7.54225C14.6111 6.77596 15.172 6.1044 15.8658 5.57843C15.0067 4.92635 13.975 4.52086 12.8886 4.40831C11.8022 4.29575 10.7049 4.48067 9.72215 4.94193C8.7394 5.40319 7.91084 6.12217 7.33117 7.01672C6.7515 7.91126 6.44409 8.94527 6.44409 10.0006C6.44409 11.0559 6.7515 12.0899 7.33117 12.9844C7.91084 13.879 8.7394 14.598 9.72215 15.0592C10.7049 15.5205 11.8022 15.7054 12.8886 15.5928C13.975 15.4803 15.0067 15.0748 15.8658 14.4227C15.1722 13.8969 14.6115 13.2256 14.2261 12.4596C13.8408 11.6936 13.6409 10.853 13.6416 10.0014Z" fill="#EB001B"/>
<path d="M25.2883 10.0008C25.2883 11.0562 24.9808 12.0902 24.401 12.9848C23.8212 13.8794 22.9925 14.5984 22.0097 15.0596C21.0268 15.5207 19.9294 15.7055 18.8429 15.5928C17.7565 15.4801 16.7248 15.0744 15.8657 14.4221C16.5591 13.8959 17.1196 13.2244 17.5051 12.4583C17.8905 11.6923 18.0908 10.8517 18.0908 10C18.0908 9.14829 17.8905 8.30771 17.5051 7.54167C17.1196 6.77562 16.5591 6.10413 15.8657 5.57786C16.7248 4.92558 17.7565 4.51989 18.8429 4.40717C19.9294 4.29446 21.0268 4.47926 22.0097 4.94045C22.9925 5.40164 23.8212 6.12062 24.401 7.01519C24.9808 7.90977 25.2883 8.94384 25.2883 9.99922V10.0008Z" fill="#F79E1B"/>
</svg>
