<svg width="23" height="16" viewBox="0 0 23 16" fill="none" xmlns="http://www.w3.org/2000/svg">
<rect x="0.25" y="0.25" width="22.5" height="15.5" rx="1.75" fill="white"/>
<rect x="0.25" y="0.25" width="22.5" height="15.5" rx="1.75" stroke="#D9D9D9" stroke-width="0.499999"/>
<path d="M12.6364 12.9999C15.3061 13.013 17.7429 10.7708 17.7429 8.04325C17.7429 5.06072 15.3061 2.99889 12.6364 3H10.3387C7.6372 2.99889 5.41333 5.06128 5.41333 8.04325C5.41333 10.7714 7.6372 13.013 10.3387 12.9999H12.6364Z" fill="#0079BE"/>
<path d="M10.3497 3.41333C7.8808 3.41417 5.88052 5.46264 5.8797 7.99094C5.88052 10.519 7.8808 12.5674 10.3497 12.5683C12.8188 12.5674 14.8199 10.519 14.8202 7.99094C14.8199 5.46264 12.8191 3.41417 10.3497 3.41333ZM7.51647 7.99094C7.51595 7.40638 7.68927 6.83525 8.01378 6.3522C8.33829 5.86915 8.7989 5.49666 9.3354 5.2834V10.6982C8.79886 10.4851 8.3382 10.1127 8.01367 9.62965C7.68914 9.14663 7.51585 8.5755 7.51647 7.99094ZM11.3637 10.6993V5.28312C11.9006 5.49608 12.3616 5.86854 12.6863 6.35175C13.0111 6.83496 13.1844 7.40639 13.1837 7.99122C13.1843 8.57603 13.0109 9.14741 12.6862 9.63059C12.3614 10.1138 11.9005 10.4863 11.3637 10.6993Z" fill="white"/>
<path d="M12.6364 12.9999C15.3061 13.013 17.7429 10.7708 17.7429 8.04325C17.7429 5.06072 15.3061 2.99889 12.6364 3H10.3387C7.6372 2.99889 5.41333 5.06128 5.41333 8.04325C5.41333 10.7714 7.6372 13.013 10.3387 12.9999H12.6364Z" fill="#0079BE"/>
<path d="M10.3497 3.41333C7.8808 3.41417 5.88052 5.46264 5.8797 7.99094C5.88052 10.519 7.8808 12.5674 10.3497 12.5683C12.8188 12.5674 14.8199 10.519 14.8202 7.99094C14.8199 5.46264 12.8191 3.41417 10.3497 3.41333ZM7.51647 7.99094C7.51595 7.40638 7.68927 6.83525 8.01378 6.3522C8.33829 5.86915 8.7989 5.49666 9.3354 5.2834V10.6982C8.79886 10.4851 8.3382 10.1127 8.01367 9.62965C7.68914 9.14663 7.51585 8.5755 7.51647 7.99094ZM11.3637 10.6993V5.28312C11.9006 5.49608 12.3616 5.86854 12.6863 6.35175C13.0111 6.83496 13.1844 7.40639 13.1837 7.99122C13.1843 8.57603 13.0109 9.14741 12.6862 9.63059C12.3614 10.1138 11.9005 10.4863 11.3637 10.6993Z" fill="white"/>
</svg>
