<svg width="24" height="16" viewBox="0 0 24 16" fill="none" xmlns="http://www.w3.org/2000/svg">
<rect x="0.436035" y="0.25" width="22.5" height="15.5" rx="1.75" fill="white" stroke="#D9D9D9" stroke-width="0.499999"/>
<path fill-rule="evenodd" clip-rule="evenodd" d="M7.21121 10.8389H5.81785L4.77301 6.795C4.72341 6.60898 4.61811 6.44453 4.46322 6.36702C4.07667 6.17223 3.65071 6.01722 3.18604 5.93904V5.78334H5.43062C5.7404 5.78334 5.97274 6.01722 6.01147 6.28883L6.55359 9.20585L7.94627 5.78334H9.3009L7.21121 10.8389ZM10.0754 10.8389H8.75945L9.84302 5.78334H11.1589L10.0754 10.8389ZM12.8614 7.18389C12.9001 6.9116 13.1325 6.75591 13.4035 6.75591C13.8295 6.71682 14.2935 6.795 14.6807 6.98911L14.913 5.90062C14.5258 5.74493 14.0999 5.66675 13.7133 5.66675C12.4361 5.66675 11.5068 6.36702 11.5068 7.33891C11.5068 8.07827 12.1651 8.46649 12.6297 8.70036C13.1325 8.93356 13.3261 9.08925 13.2873 9.32245C13.2873 9.67225 12.9001 9.82794 12.5136 9.82794C12.0489 9.82794 11.5842 9.71134 11.1589 9.51656L10.9266 10.6057C11.3913 10.7998 11.894 10.878 12.3587 10.878C13.7907 10.9164 14.6807 10.2168 14.6807 9.16676C14.6807 7.8444 12.8614 7.76689 12.8614 7.18389ZM19.286 10.8389L18.2412 5.78334H17.1189C16.8866 5.78334 16.6542 5.93904 16.5768 6.17223L14.642 10.8389H15.9966L16.267 10.1002H17.9314L18.0863 10.8389H19.286ZM17.3125 7.1448L17.6991 9.05016H16.6155L17.3125 7.1448Z" fill="#172B85"/>
</svg>
