<svg width="21" height="21" viewBox="0 0 21 21"  xmlns="http://www.w3.org/2000/svg">
<path d="M3.32501 2.5C2.95682 2.5 2.65834 2.79848 2.65834 3.16667C2.65834 3.53485 2.95682 3.83333 3.32501 3.83333H3.65261C3.95026 3.83333 4.21185 4.03065 4.29362 4.31685L6.4077 11.7161C6.65301 12.5747 7.43778 13.1667 8.33074 13.1667H14.4223C15.2401 13.1667 15.9755 12.6688 16.2793 11.9095L18.245 6.99519C18.5953 6.11937 17.9502 5.16667 17.007 5.16667H5.92312L5.57565 3.95056C5.33034 3.09196 4.54557 2.5 3.65261 2.5H3.32501Z" />
<path d="M8.65842 18.5C9.76299 18.5 10.6584 17.6045 10.6584 16.5C10.6584 15.3955 9.76299 14.5 8.65842 14.5C7.55384 14.5 6.65842 15.3955 6.65842 16.5C6.65842 17.6045 7.55384 18.5 8.65842 18.5Z" />
<path d="M13.9918 18.5C15.0963 18.5 15.9918 17.6045 15.9918 16.5C15.9918 15.3955 15.0963 14.5 13.9918 14.5C12.8872 14.5 11.9918 15.3955 11.9918 16.5C11.9918 17.6045 12.8872 18.5 13.9918 18.5Z" />
</svg>
