<svg width="28" height="28" viewBox="0 0 28 28" xmlns="http://www.w3.org/2000/svg">
<path d="M5.79167 4C5.35445 4 5 4.35445 5 4.79167C5 5.22889 5.35445 5.58333 5.79167 5.58333H6.18069C6.53415 5.58333 6.84479 5.81765 6.9419 6.15751L9.45236 14.9441C9.74367 15.9637 10.6756 16.6667 11.736 16.6667H18.9698C19.9408 16.6667 20.8142 16.0754 21.1749 15.1737L23.5092 9.33803C23.9251 8.29801 23.1591 7.16667 22.039 7.16667H8.87692L8.4643 5.72254C8.173 4.70295 7.24108 4 6.18069 4H5.79167ZM10.9748 14.5092L9.32929 8.75H22.039L19.7047 14.5857C19.5846 14.8862 19.2934 15.0833 18.9698 15.0833H11.736C11.3825 15.0833 11.0719 14.849 10.9748 14.5092Z" />
<path d="M12.125 23C13.4367 23 14.5 21.9366 14.5 20.625C14.5 19.3134 13.4367 18.25 12.125 18.25C10.8133 18.25 9.75 19.3134 9.75 20.625C9.75 21.9366 10.8133 23 12.125 23ZM12.125 21.4167C11.6878 21.4167 11.3333 21.0622 11.3333 20.625C11.3333 20.1878 11.6878 19.8333 12.125 19.8333C12.5622 19.8333 12.9167 20.1878 12.9167 20.625C12.9167 21.0622 12.5622 21.4167 12.125 21.4167Z"/>
<path d="M18.4583 23C19.7699 23 20.8333 21.9366 20.8333 20.625C20.8333 19.3134 19.7699 18.25 18.4583 18.25C17.1466 18.25 16.0833 19.3134 16.0833 20.625C16.0833 21.9366 17.1466 23 18.4583 23ZM18.4583 21.4167C18.0211 21.4167 17.6666 21.0622 17.6666 20.625C17.6666 20.1878 18.0211 19.8333 18.4583 19.8333C18.8954 19.8333 19.2499 20.1878 19.2499 20.625C19.2499 21.0622 18.8954 21.4167 18.4583 21.4167Z"/>
</svg>
