<?xml version="1.0" encoding="UTF-8"?>
<svg width="20px" height="20px" viewBox="0 0 20 20" version="1.1" xmlns="http://www.w3.org/2000/svg" xmlns:xlink="http://www.w3.org/1999/xlink">
    <title>切片</title>
    <g id="❤️我的订单&amp;我的仓库&amp;我的包裹" stroke="none" stroke-width="1" fill="none" fill-rule="evenodd">
        <g id="我的仓库" transform="translate(-447.000000, -295.000000)">
            <g id="编组-29" transform="translate(312.000000, 128.000000)">
                <g id="搜索" transform="translate(24.000000, 84.000000)">
                    <g id="弹层" transform="translate(0.000000, 32.000000)">
                        <g id="编组-4备份" transform="translate(0.000000, 40.000000)">
                            <g id="img_select_gou" transform="translate(111.000000, 11.000000)">
                                <path d="M4.27602622,9.28636563 C3.98517768,8.99669216 3.51188614,8.99666299 3.21998685,9.28738297 C2.92605249,9.58012979 2.92763023,10.0489977 3.21896539,10.3391558 L7.68069662,14.782861 C7.8261209,14.9276977 8.01715592,15.0001234 8.20832228,14.9999998 C8.40057309,14.9992444 8.5927419,14.925256 8.73994039,14.7786522 L16.7772104,6.77385397 C17.0751442,6.47712387 17.0723141,6.00859235 16.7804148,5.71787237 C16.4864804,5.42512555 16.0138186,5.42858126 15.7201495,5.72106382 L8.20820558,13.2026584 L4.27602622,9.28636563 Z" id="Combined-Shape" fill="#13E2DF"></path>
                                <rect id="Rectangle-314" fill="#D8D8D8" opacity="0" x="0" y="0" width="20" height="20"></rect>
                            </g>
                        </g>
                    </g>
                </g>
            </g>
        </g>
    </g>
</svg>