<?xml version="1.0" encoding="UTF-8"?>
<svg width="21px" height="21px" viewBox="0 0 21 21" version="1.1" xmlns="http://www.w3.org/2000/svg" xmlns:xlink="http://www.w3.org/1999/xlink">
    <title>删除已选群成员-叉叉</title>
    <g id="sifubuy首页" stroke="none" stroke-width="1" fill="none" fill-rule="evenodd">
        <g id="转盘抽奖-规则" transform="translate(-859.000000, -201.000000)" fill="currentColor" fill-rule="nonzero">
            <g id="删除已选群成员-叉叉" transform="translate(859.000000, 201.000000)">
                <path d="M10.5,0 C16.2989899,0 21,4.71280991 21,10.5 C21,16.2989899 16.28719,21 10.5,21 C4.70101012,21 0,16.28719 0,10.5 C0,4.70101012 4.71280991,0 10.5,0 Z M10.5,20.1923077 C15.8453295,20.1923077 20.1923077,15.8487012 20.1923077,10.5 C20.1923077,5.1546705 15.8487012,0.8076923 10.5,0.8076923 C5.1546705,0.8076923 0.8076923,5.15129877 0.8076923,10.5 C0.8076923,15.8453295 5.15129877,20.1923077 10.5,20.1923077 Z M10.5,11.0711247 L7.35881409,14.2123106 C7.20110237,14.3700223 6.94540112,14.3700223 6.7876894,14.2123106 C6.62997768,14.0545989 6.62997768,13.7988976 6.7876894,13.6411859 L9.92887528,10.5 L6.7876894,7.35881409 C6.62997768,7.20110237 6.62997768,6.94540112 6.7876894,6.7876894 C6.94540112,6.62997768 7.20110237,6.62997768 7.35881409,6.7876894 L10.5,9.92887528 L13.6411859,6.7876894 C13.7988976,6.62997768 14.0545989,6.62997768 14.2123106,6.7876894 C14.3700223,6.94540112 14.3700223,7.20110237 14.2123106,7.35881409 L11.0711247,10.5 L14.2123106,13.6411859 C14.3700223,13.7988976 14.3700223,14.0545989 14.2123106,14.2123106 C14.0545989,14.3700223 13.7988976,14.3700223 13.6411859,14.2123106 L10.5,11.0711247 Z" id="形状"></path>
            </g>
        </g>
    </g>
</svg>
