<?xml version="1.0" encoding="UTF-8"?>
<svg width="18px" height="18px" viewBox="0 0 18 18" version="1.1" xmlns="http://www.w3.org/2000/svg" xmlns:xlink="http://www.w3.org/1999/xlink">
    <title>切片</title>
    <g id="❤️登录&amp;首页&amp;商详" stroke="none" stroke-width="1" fill="none" fill-rule="evenodd">
        <g id="商详" transform="translate(-451.000000, -697.000000)">
            <g id="编组-21" transform="translate(120.000000, 128.000000)">
                <g id="ic_collect" transform="translate(331.000000, 569.000000)">
                    <rect id="Rectangle-2-Copy-3" fill-opacity="0.100000001" fill="#000000" opacity="0" x="0" y="0" width="18" height="18"></rect>
                    <path d="M12.2654885,2.625 L12.2654886,2.625 C10.9839256,2.63515796 9.77636154,3.22692817 8.98311477,4.2335472 L8.98311496,4.23354745 C8.19903338,3.21701636 6.98704974,2.62262026 5.70325632,2.625 L5.70325657,2.625 C3.34403592,2.67242076 1.46614797,4.61651673 1.50046288,6.97596837 L1.50046275,6.97596556 C1.5550268,8.16204362 1.98606236,9.29989601 2.73103598,10.2244352 L2.73103505,10.224434 C4.39864472,12.258125 6.32873651,14.0615442 8.47078767,15.5874798 L8.47078757,15.5874797 C8.7963583,15.8259504 9.23892055,15.8259504 9.56449128,15.5874798 L9.56449301,15.5874786 C11.6990242,14.0518928 13.6279866,12.2491152 15.3042328,10.2231881 L15.3042327,10.2231881 C16.0232135,9.28681587 16.4401615,8.15378348 16.4996479,6.97471855 L16.4996479,6.97472082 C16.5296772,4.60509277 14.6350547,2.65876749 12.265478,2.625 L12.2654885,2.625 Z" id="路径" stroke="#999999" stroke-width="1.2" stroke-linejoin="round" fill-rule="nonzero"></path>
                </g>
            </g>
        </g>
    </g>
</svg>