<?xml version="1.0" encoding="UTF-8"?>
<svg width="15px" height="15px" viewBox="0 0 15 15" version="1.1" xmlns="http://www.w3.org/2000/svg" xmlns:xlink="http://www.w3.org/1999/xlink">
    <title>复制</title>
    <g id="页面-1" stroke="none" stroke-width="1" fill="none" fill-rule="evenodd">
        <g id="货品详情" transform="translate(-336.000000, -270.000000)" fill="currentColor" fill-rule="nonzero">
            <g id="复制" transform="translate(336.000000, 270.000000)">
                <path d="M5.32894737,0 L13.6184211,0 C14.381446,0 15,0.618553963 15,1.38157894 L15,9.67105263 C15,10.4340776 14.381446,11.0526316 13.6184211,11.0526316 L5.32894737,11.0526316 C4.56592239,11.0526316 3.94736842,10.4340776 3.94736842,9.67105263 L3.94736842,1.38157894 C3.94736842,0.618553956 4.56592239,0 5.32894737,0 Z M5.32894737,1.18421053 C5.21994381,1.18421053 5.13157895,1.27257537 5.13157895,1.38157894 L5.13157895,9.67105263 C5.13157895,9.7800562 5.2199438,9.86842105 5.32894737,9.86842105 L13.6184211,9.86842105 C13.7274246,9.86842105 13.8157895,9.78005619 13.8157895,9.67105263 L13.8157895,1.38157894 C13.8157895,1.27257538 13.7274246,1.18421053 13.6184211,1.18421053 L5.32894737,1.18421053 Z M9.86842105,12.2368421 C9.86842105,11.9098314 10.1335156,11.6447368 10.4605263,11.6447368 C10.787537,11.6447368 11.0526316,11.9098314 11.0526316,12.2368421 L11.0526316,13.6184211 C11.0526316,14.381446 10.4340776,15 9.67105263,15 L1.38157894,15 C0.618553963,15 0,14.381446 0,13.6184211 L0,5.32894737 C0,4.56592239 0.618553956,3.94736842 1.38157894,3.94736842 L2.76315789,3.94736842 C3.0901686,3.94736842 3.35526315,4.21246297 3.35526315,4.53947368 C3.35526315,4.86648439 3.0901686,5.13157895 2.76315789,5.13157895 L1.38157894,5.13157895 C1.27257537,5.13157896 1.18421053,5.21994381 1.18421053,5.32894737 L1.18421053,13.6184211 C1.18421054,13.7274246 1.27257538,13.8157895 1.38157894,13.8157895 L9.67105263,13.8157895 C9.78005619,13.8157895 9.86842104,13.7274246 9.86842105,13.6184211 L9.86842105,12.2368421 Z" id="形状"></path>
            </g>
        </g>
    </g>
</svg>
