<?xml version="1.0" encoding="UTF-8"?>
<svg width="24px" height="24px" viewBox="0 0 24 24" version="1.1" xmlns="http://www.w3.org/2000/svg" xmlns:xlink="http://www.w3.org/1999/xlink">
    <title>img_select_gou</title>
    <g id="❤️购物车&amp;确认订单" stroke="none" stroke-width="1" >
        <g id="确认订单页-选择寄送国家" transform="translate(-651.000000, -705.000000)">
            <g id="弹层" transform="translate(255.000000, 333.000000)">
                <g id="编组-22" transform="translate(0.000000, 80.000000)">
                    <g id="编组-4" transform="translate(0.000000, 282.000000)">
                        <g id="img_select_gou" transform="translate(396.000000, 10.000000)">
                            <path d="M5.13123147,11.1436388 C4.78221321,10.7960306 4.21426336,10.7959956 3.86398422,11.1448596 C3.51126299,11.4961557 3.51315628,12.0587972 3.86275846,12.4069869 L9.21683595,17.7394332 C9.39134508,17.9132372 9.6205871,18.000148 9.84998674,17.9999998 C10.0806877,17.9990933 10.3112903,17.9103072 10.4879285,17.7343826 L20.1326525,8.12862476 C20.490173,7.77254865 20.4867769,7.21031082 20.1364977,6.86144685 C19.7837765,6.51015066 19.2165823,6.51429751 18.8641794,6.86527658 L9.8498467,15.8431901 L5.13123147,11.1436388 Z" id="Combined-Shape"></path>
                            <rect id="Rectangle-314" fill="#D8D8D8" opacity="0" x="0" y="0" width="24" height="24"></rect>
                        </g>
                    </g>
                </g>
            </g>
        </g>
    </g>
</svg>
