<?xml version="1.0" encoding="UTF-8"?>
<svg width="25px" height="26px" viewBox="0 0 25 26" version="1.1" xmlns="http://www.w3.org/2000/svg" xmlns:xlink="http://www.w3.org/1999/xlink">
    <title>删除1备份 3</title>
    <g id="❤️微店店铺详情&amp;DIY订单&amp;转运" stroke="none" stroke-width="1" fill="none" fill-rule="evenodd">
        <g id="转运-商家提交包裹-多个快递单号" transform="translate(-1263.000000, -1438.000000)" fill="currentColor" fill-rule="nonzero">
            <g id="删除1备份-3" transform="translate(1263.000000, 1438.000000)">
                <path d="M23.1761343,5.41264737 L17.8403001,5.41264737 C17.7243295,2.49868663 15.4077993,0.152735269 12.4955341,0 C9.58500884,0.149313886 7.27226362,2.50007471 7.17041801,5.41264737 L1.84351554,5.41264737 C1.32190068,5.41264737 0,5.29474812 0,6.1039657 C0,7.41514827 1.32368703,7.19899964 1.84351554,7.19899964 L3.62986781,7.19899964 L3.62986781,21.4898178 C3.85295751,23.3568133 5.32052486,24.8310145 7.18649518,25.0625223 L17.8563773,25.0625223 C19.7375602,24.8319734 21.2293217,23.3665889 21.4933905,21.4898178 L21.3987138,7.19899964 L23.1850661,7.19899964 C23.6977492,7.19899964 25,7.24008574 25,6.08967488 C24.5478769,5.56687681 23.8598738,5.31148681 23.1761343,5.41264737 Z M12.4955341,1.85423365 C14.4022155,1.99232917 15.9200047,3.5063182 16.0628796,5.41264737 L8.94962487,5.41264737 C9.08818712,3.51247259 10.5958589,1.9994841 12.4955341,1.85423365 Z M19.7070382,21.4898178 C19.4230173,22.3601892 18.7223226,23.0307103 17.8403001,23.2761701 L7.17041801,23.2761701 C6.3074253,23.0274802 5.63275556,22.3528105 5.38406574,21.4898178 L5.38406574,7.19899964 L19.7070382,7.19899964 L19.7070382,21.4898178 Z M8.94962487,19.7034655 L8.94962487,12.5580564 C8.94962487,12.0418006 8.97642015,10.8556627 9.97499107,10.8556627 C10.7377635,10.8556627 10.7145409,12.0560915 10.7270454,12.5580564 L10.7270454,19.7034655 C10.7270454,20.2197213 10.5484101,20.2625938 10.030368,20.2625938 C9.51232583,20.2625938 8.94962487,20.2197213 8.94962487,19.7034655 Z M14.2854591,19.7034655 L14.2854591,12.5580564 C14.1779642,11.911662 14.4330031,11.2582961 14.9499821,10.8556627 C16.1343337,10.8556627 16.0485888,12.0560915 16.0628796,12.5580564 L16.0628796,19.7034655 C16.0628796,20.2197213 15.5162558,20.2625938 15.0035727,20.2625938 C14.4908896,20.2625938 14.2836727,20.2197213 14.2836727,19.7034655 L14.2854591,19.7034655 Z" id="形状"></path>
            </g>
        </g>
    </g>
</svg>
