<?xml version="1.0" encoding="UTF-8"?>
<svg width="11px" height="10px" viewBox="0 0 11 10" version="1.1" xmlns="http://www.w3.org/2000/svg" xmlns:xlink="http://www.w3.org/1999/xlink">
    <title>下拉 (3)</title>
    <g id="❤️微店店铺详情&amp;DIY订单&amp;转运" stroke="none" stroke-width="1" fill="none" fill-rule="evenodd">
        <g id="我的账号-转运-商家包裹list" transform="translate(-706.000000, -527.000000)" fill="currentColor" fill-rule="nonzero">
            <g id="编组-8备份-2" transform="translate(337.000000, 440.000000)">
                <g id="编组-4" transform="translate(61.000000, 20.000000)">
                    <g id="编组-19" transform="translate(92.000000, 64.000000)">
                        <g id="下拉-(3)" transform="translate(216.000000, 3.000000)">
                            <path d="M4.77781192,9.62912359 L5.14016561,10 L10.1367515,4.89468713 C10.3353686,4.68971629 10.3353686,4.35947666 10.1367515,4.15450582 C10.0409087,4.05584555 9.91053289,4.00031591 9.77450436,4.00021759 C9.63847583,4.00011926 9.50802333,4.05546036 9.41204408,4.15398198 L5.14119067,8.51754202 L0.873924902,4.15398198 C0.77810162,4.05542258 0.647772246,4 0.511827465,4 C0.375882685,4 0.245553311,4.05542258 0.149730029,4.15398198 C-0.0495096966,4.35872682 -0.0499672607,4.68936705 0.148704987,4.89468713 L4.75782353,9.60764629 L4.77832445,9.62912359 L4.77781192,9.62912359 Z" id="路径"></path>
                            <path d="M4.77781192,5.62912359 L5.14016561,6 L10.1367515,0.894687133 C10.3353686,0.689716291 10.3353686,0.359476662 10.1367515,0.154505819 C10.0409087,0.0558455451 9.91053289,0.000315911533 9.77450436,0.000217585922 C9.63847583,0.00011926031 9.50802333,0.0554603591 9.41204408,0.153981979 L5.14119067,4.51754202 L0.873924902,0.153981979 C0.77810162,0.0554225816 0.647772246,0 0.511827465,0 C0.375882685,0 0.245553311,0.0554225816 0.149730029,0.153981979 C-0.0495096966,0.35872682 -0.0499672607,0.689367053 0.148704987,0.894687133 L4.75782353,5.60764629 L4.77832445,5.62912359 L4.77781192,5.62912359 Z" id="路径"></path>
                        </g>
                    </g>
                </g>
            </g>
        </g>
    </g>
</svg>
