<?xml version="1.0" encoding="UTF-8"?>
<svg width="14px" height="14px" viewBox="0 0 14 14" version="1.1" xmlns="http://www.w3.org/2000/svg" xmlns:xlink="http://www.w3.org/1999/xlink">
    <title>切片</title>
    <g id="❤️登录&amp;首页&amp;商详" stroke="none" stroke-width="1">
        <g id="首页-已登录" transform="translate(-1170.000000, -13.000000)">
            <g id="编组-3" transform="translate(1170.000000, 10.000000)">
                <g id="语言切换" transform="translate(0.000000, 3.000000)">
                    <path d="M7,0 C3.14008789,0 0,3.14008789 0,7 C0,10.8599121 3.14008789,14 7,14 C10.8599121,14 14,10.8599121 14,7 C14,3.14008789 10.8599121,0 7,0 Z M13.0876621,7.66441211 L13.0847454,7.68191211 C13.0602454,7.89541211 13.0252454,8.10541211 12.9797454,8.31191211 L12.9797454,8.31249545 L10.8680832,8.31249545 L10.8680832,8.31249545 C10.9599224,7.43990422 10.9599223,6.56008762 10.8680832,5.68749387 L12.9797453,5.68749387 C13.0252453,5.89399387 13.0596619,6.10399387 13.0847453,6.31749387 C13.0847453,6.3233272 13.0864953,6.32916053 13.0876619,6.33557725 C13.1372453,6.77716103 13.1372453,7.22282725 13.0876619,7.66441103 L13.0876621,7.66441211 Z M9.33798642,12.6583242 C9.99483379,11.8078242 10.4924162,10.6044121 10.7461621,9.18691188 L12.7143243,9.18691188 L12.7143243,9.18691188 C12.1106618,10.7567576 10.8905782,12.010988 9.33798642,12.6577498 L9.33798642,12.6583242 Z M12.71375,4.81132422 L10.7461621,4.81132422 C10.4924121,3.39382422 9.99482832,2.19098633 9.338,1.34048633 L9.338,1.34048633 C10.8903594,1.98737247 12.1102188,3.2415879 12.71375,4.81132422 L12.71375,4.81132422 Z M9.98608789,5.68632422 L9.98608797,5.68632422 C10.0880087,6.55835672 10.0880087,7.43929168 9.98608781,8.31132488 L7.4369257,8.31132488 L7.4369257,5.68632422 L9.98608781,5.68632422 L9.98608789,5.68632422 Z M7.43692578,4.81132422 L7.43692578,0.948486328 C8.52775957,1.27748633 9.45058789,2.80173633 9.84901367,4.81307422 L7.43751367,4.81307422 L7.43692578,4.81132422 Z M7.43692578,9.18632422 L9.84901367,9.18632422 C9.45059746,11.1988242 8.52776367,12.7224863 7.43751367,13.0514863 L7.43751367,9.18748633 L7.43692578,9.18632422 Z M1.28626367,9.18690754 L3.25385156,9.18690754 C3.50760156,10.6044075 4.00518535,11.8078197 4.66201384,12.6577455 L4.66201384,12.6577455 C3.10965446,12.0108594 1.88979509,10.7566439 1.28626367,9.18690754 L1.28626367,9.18690754 Z M4.66201367,1.34165754 C4.00517988,2.19099133 3.50759746,3.39499543 3.25385156,4.81249592 L1.28568926,4.81249592 L1.28568926,4.81249592 C1.88948575,3.24254085 3.10979083,1.98828303 4.66260137,1.34165754 L4.66201367,1.34165754 Z M4.01392988,8.31249543 L4.01392982,8.31249543 C3.91200913,7.44046304 3.91200913,6.55952808 4.01392995,5.68749488 L6.56251784,5.68749488 L6.56251784,8.31249543 L4.01335573,8.31249543 L4.01392988,8.31249543 Z M6.56251777,9.18749543 L6.56251777,13.0520833 C5.47168398,12.7230833 4.54942988,11.1988333 4.15101777,9.18749543 L6.56251777,9.18749543 L6.56251777,9.18749543 Z M6.56251777,4.81249543 L4.15101777,4.81249543 C4.54943398,2.80115754 5.47168398,1.27749543 6.56251777,0.947907543 L6.56251777,4.81249543 L6.56251777,4.81249543 Z M0.912929883,6.33499543 C0.912929883,6.33032877 0.914679883,6.32507877 0.915263221,6.31982881 C0.939179842,6.10749502 0.974179842,5.89632881 1.02026322,5.68749502 L3.13192555,5.68749502 L3.13192555,5.68749502 C3.03971529,6.56006762 3.03971542,7.4399307 3.13192555,8.31249711 L1.02026344,8.31249711 C0.974180062,8.10366332 0.939180062,7.89249711 0.915263441,7.68016332 L0.912930103,7.66441332 L0.912930011,7.66441251 C0.862557354,7.22289981 0.862557491,6.77709142 0.912930196,6.33557872 L0.912929883,6.33499543 Z" id="形状"></path>
                </g>
            </g>
        </g>
    </g>
</svg>
