<svg width="16" height="15" viewBox="0 0 16 15" fill="none" xmlns="http://www.w3.org/2000/svg">
<path fill-rule="evenodd" clip-rule="evenodd" d="M6.85355 9.35355L14.3536 1.85355C14.5488 1.65829 14.5488 1.34171 14.3536 1.14645C14.1583 0.951184 13.8417 0.951184 13.6464 1.14645L6.14645 8.64645C5.95118 8.84171 5.95118 9.15829 6.14645 9.35355C6.34171 9.54882 6.65829 9.54882 6.85355 9.35355ZM2.1 1C1.76863 1 1.5 1.26863 1.5 1.6V13.4C1.5 13.7314 1.76863 14 2.1 14H13.9C14.2314 14 14.5 13.7314 14.5 13.4V6C14.5 5.72386 14.2761 5.5 14 5.5C13.7239 5.5 13.5 5.72386 13.5 6V13H2.5V2H9C9.27614 2 9.5 1.77614 9.5 1.5C9.5 1.22386 9.27614 1 9 1H2.1Z" fill="currentColor"/>
</svg>
