<svg width="21" height="21" viewBox="0 0 21 21"  xmlns="http://www.w3.org/2000/svg">
<path d="M11.2071 2.79289C10.8166 2.40237 10.1834 2.40237 9.79289 2.79289L2.79289 9.79289C2.40237 10.1834 2.40237 10.8166 2.79289 11.2071C3.18342 11.5976 3.81658 11.5976 4.20711 11.2071L4.5 10.9142V17.5C4.5 18.0523 4.94772 18.5 5.5 18.5H7.5C8.05228 18.5 8.5 18.0523 8.5 17.5V15.5C8.5 14.9477 8.94772 14.5 9.5 14.5H11.5C12.0523 14.5 12.5 14.9477 12.5 15.5V17.5C12.5 18.0523 12.9477 18.5 13.5 18.5H15.5C16.0523 18.5 16.5 18.0523 16.5 17.5V10.9142L16.7929 11.2071C17.1834 11.5976 17.8166 11.5976 18.2071 11.2071C18.5976 10.8166 18.5976 10.1834 18.2071 9.79289L11.2071 2.79289Z" />
</svg>
