<svg width="12" height="12" viewBox="0 0 12 12" fill="none" xmlns="http://www.w3.org/2000/svg">
<rect width="12" height="12" rx="6" fill="black"/>
<path d="M4.564 10C4.564 9.712 4.628 9.552 4.756 9.52L5.488 9.28L5.356 9.448V5.104L5.5 5.284L4.756 5.14C4.628 5.124 4.564 4.968 4.564 4.672C4.852 4.632 5.096 4.6 5.296 4.576C5.496 4.552 5.7 4.54 5.908 4.54C6.3 4.54 6.496 4.776 6.496 5.248V9.424L6.352 9.256L7.336 9.496C7.336 9.624 7.32 9.724 7.288 9.796C7.264 9.86 7.208 9.928 7.12 10H4.564ZM5.884 3.4C5.668 3.4 5.5 3.34 5.38 3.22C5.268 3.1 5.212 2.94 5.212 2.74C5.212 2.548 5.28 2.392 5.416 2.272C5.552 2.144 5.708 2.08 5.884 2.08C6.1 2.08 6.268 2.14 6.388 2.26C6.508 2.38 6.568 2.54 6.568 2.74C6.568 2.932 6.496 3.092 6.352 3.22C6.216 3.34 6.06 3.4 5.884 3.4Z" fill="white"/>
</svg>
