<svg width="28" height="28" viewBox="0 0 28 28" xmlns="http://www.w3.org/2000/svg">
<path fill-rule="evenodd" clip-rule="evenodd" d="M14.25 17.5C16.0449 17.5 17.5 16.0449 17.5 14.25C17.5 12.4551 16.0449 11 14.25 11C12.4551 11 11 12.4551 11 14.25C11 16.0449 12.4551 17.5 14.25 17.5ZM9 14.5C9 15.6044 8.1044 16.5 7 16.5C5.8956 16.5 5 15.6044 5 14.5C5 13.3952 5.8956 12.5 7 12.5C8.1044 12.5 9 13.3952 9 14.5ZM23.5 14.5C23.5 15.6044 22.6044 16.5 21.5 16.5C20.3956 16.5 19.5 15.6044 19.5 14.5C19.5 13.3952 20.3956 12.5 21.5 12.5C22.6044 12.5 23.5 13.3952 23.5 14.5Z" />
</svg>
