<?xml version="1.0" encoding="UTF-8"?>
<svg width="12px" height="16px" viewBox="0 0 12 16" version="1.1" xmlns="http://www.w3.org/2000/svg" xmlns:xlink="http://www.w3.org/1999/xlink">
    <title>定位 (1)</title>
    <g id="❤️微店店铺详情&amp;DIY订单&amp;转运" stroke="none" stroke-width="1" fill="none" fill-rule="evenodd">
        <g id="我的账号-转运-商家包裹list" transform="translate(-490.000000, -525.000000)" fill="currentColor" fill-rule="nonzero">
            <g id="编组-8备份-2" transform="translate(337.000000, 440.000000)">
                <g id="编组-4" transform="translate(61.000000, 20.000000)">
                    <g id="编组-19" transform="translate(92.000000, 64.000000)">
                        <g id="定位-(1)" transform="translate(0.000000, 1.000000)">
                            <path d="M9.49614794,8.99649788 C10.2260484,8.16275665 10.6344239,7.09855285 10.6344239,5.96960894 C10.6344239,3.42305698 8.55951636,1.35865922 6,1.35865922 C3.44048364,1.35865922 1.3655761,3.42305698 1.3655761,5.96960894 C1.3655761,7.09855285 1.77395164,8.16275665 2.50385206,8.99649788 C2.5169947,9.01150236 2.52951167,9.02703816 2.54137127,9.04306592 L6,13.4213283 L9.45862873,9.04304894 C9.47048871,9.02702695 9.48300568,9.01149682 9.49614794,8.99649788 L9.49614794,8.99649788 Z M0,5.96960894 C0,2.67268648 2.68629303,0 6,0 C9.31370697,0 12,2.67268648 12,5.96960894 C12,7.42167598 11.4761821,8.79477095 10.5415477,9.87089698 L6.53682504,14.9404621 C6.26345377,15.2865126 5.73654623,15.2865126 5.46317496,14.9404621 L1.45843528,9.87089698 C0.523817923,8.79477095 0,7.42167598 0,5.96960894 Z M6,8.47463687 C4.60946799,8.47463687 3.48221906,7.35309765 3.48221906,5.96960894 C3.48221906,4.58612022 4.60946799,3.46458101 6,3.46458101 C7.39053201,3.46458101 8.51778094,4.58612022 8.51778094,5.96960894 C8.51778094,7.35309765 7.39053201,8.47463687 6,8.47463687 Z M6,7.11597765 C6.63635846,7.11597765 7.15220484,6.60274413 7.15220484,5.96960894 C7.15220484,5.33647374 6.63635846,4.82324022 6,4.82324022 C5.36364154,4.82324022 4.84779516,5.33647374 4.84779516,5.96960894 C4.84779516,6.60274413 5.36364154,7.11597765 6,7.11597765 Z" id="形状"></path>
                        </g>
                    </g>
                </g>
            </g>
        </g>
    </g>
</svg>
