<?xml version="1.0" encoding="UTF-8"?>
<svg width="12px" height="12px" viewBox="0 0 12 12" version="1.1" xmlns="http://www.w3.org/2000/svg" xmlns:xlink="http://www.w3.org/1999/xlink">
    <title>-mockplus-</title>
    <g id="❤️我的订单&amp;我的仓库&amp;我的包裹" stroke="none"  fill="none" fill-rule="evenodd">
        <g id="我的仓库" transform="translate(-1008.000000, -282.000000)">
            <g id="编组-29" transform="translate(312.000000, 128.000000)">
                <g id="编组-14" transform="translate(24.000000, 136.000000)">
                    <g id="编组-5" transform="translate(620.000000, 16.000000)">
                        <g id="ic_glo_?" transform="translate(52.000000, 2.000000)">
                            <rect id="矩形" x="0" y="0" width="12" height="12"></rect>
                            <g id="ic_funline_jg" transform="translate(0.500000, 0.500000)">
                                <circle id="Oval-4" stroke="#999999" cx="5.5" cy="5.5" r="5.5"></circle>
                                <path d="M5.54090657,2 C6.10979977,2 6.57202549,2.15010482 6.92758374,2.46797386 C7.28314199,2.7770132 7.5,3.22656659 7.5,3.75634832 C7.5,4.18900339 7.38444357,4.5510209 7.16221966,4.83357116 C7.08221906,4.93069781 6.83332828,5.16026989 6.41554734,5.5222874 C6.24665717,5.66356253 6.12221179,5.82249705 6.04221118,5.98143156 C5.94443266,6.15802547 5.89998788,6.35227877 5.89998788,6.56419146 C5.89998788,6.80488187 5.70486975,7 5.46417934,7 L5.38467811,7 C5.1439877,7 4.94886957,6.80488187 4.94886957,6.56419146 L4.94886957,6.56419146 L4.94886957,6.56419146 C4.94886957,6.23749273 5.0022033,5.95494248 5.12664869,5.7253704 C5.24220512,5.47813892 5.57998546,5.11612141 6.13110074,4.63048816 L6.282213,4.46272395 C6.44221421,4.25964096 6.53110377,4.04772827 6.53110377,3.81815618 C6.53110377,3.50911684 6.40313532,3.24498705 6.23424516,3.06839315 C6.05646603,2.89179924 5.7986863,2.80350228 5.47868388,2.80350228 C5.07868085,2.80350228 4.78534529,2.92711802 4.60756617,3.18317919 C4.50514406,3.31883156 4.40664324,3.47406112 4.43772444,3.72440884 C4.44209901,3.75964439 4.44451957,3.82375558 4.44498611,3.91674238 C4.4462841,4.1796867 4.23419519,4.39391458 3.97125098,4.39523386 C3.97045473,4.39523785 3.96965848,4.39523985 3.96886222,4.39523985 C3.70991677,4.39523985 3.5,4.18532308 3.5,3.92637763 C3.5,3.85339877 3.5,3.7804199 3.5,3.70744104 C3.5,3.2089072 3.70240692,2.85497626 3.99422819,2.56510051 C4.36756435,2.1854236 4.88312381,2 5.54090657,2 Z M5.49489796,7.5 C5.70918367,7.5 5.89285714,7.56293706 6.03571429,7.70979021 C6.17857143,7.84615385 6.25,8.02447552 6.25,8.24475524 C6.25,8.46503497 6.16836735,8.64335664 6.0255102,8.79020979 C5.88265306,8.92657343 5.69897959,9 5.49489796,9 C5.29081633,9 5.10714286,8.92657343 4.96428571,8.77972028 C4.82142857,8.63286713 4.75,8.45454545 4.75,8.24475524 C4.75,8.02447552 4.82142857,7.84615385 4.96428571,7.70979021 C5.10714286,7.56293706 5.29081633,7.5 5.49489796,7.5 Z" id="？" fill="currentColor"></path>
                            </g>
                        </g>
                    </g>
                </g>
            </g>
        </g>
    </g>
</svg>
