<svg width="21" height="21" viewBox="0 0 21 21"  xmlns="http://www.w3.org/2000/svg">
<path d="M5.93139 4.78514H5.35676C4.41022 4.78514 3.6429 5.55246 3.6429 6.499V7.64157C3.6429 9.07193 4.69644 10.2553 6.06701 10.465C6.518 12.2733 8.04607 13.6554 9.93039 13.8904V15.0683H8.21653C6.95448 15.0683 5.93139 16.0913 5.93139 17.3534V17.9287C5.93139 18.2442 6.18717 18.5 6.50268 18.5H14.5007C14.8161 18.5 15.072 18.2442 15.072 17.9287V17.3534C15.072 16.0913 14.0489 15.0683 12.7868 15.0683H11.073V13.8904C12.9573 13.6554 14.4855 12.2732 14.9363 10.4648C16.3066 10.2547 17.3571 9.07093 17.3571 7.64157V6.499C17.3571 5.55246 16.5898 4.78514 15.6432 4.78514H15.072C15.072 3.52309 14.0489 2.5 12.7868 2.5H8.21653C6.95448 2.5 5.93139 3.52309 5.93139 4.78514ZM15.072 5.92771H15.6432C15.9587 5.92771 16.2145 6.18349 16.2145 6.499V7.64157C16.2145 8.38731 15.7376 9.0221 15.072 9.25764V5.92771ZM5.93139 5.92771V9.25808C5.26417 9.02278 4.78547 8.38724 4.78547 7.64157V6.499C4.78547 6.18349 5.04125 5.92771 5.35676 5.92771H5.93139Z" />
</svg>
