<svg xmlns="http://www.w3.org/2000/svg" viewBox="0 0 12 11" class="design-iconfont">
  <path d="M3.83,3 L3.8,3.47 L2,7.5 C2,8.7 2.85,9.78 4.16,9.78 C5.5,9.78 6.32,8.7 6.32,7.5 L4.68,3.81 L7.29,3.81 L7.29,11.59 L4.73,11.59 C3.76,11.59 3.35,12.08 3.35,13 L12.65,13 C12.65,12.21 12.25,11.59 11.27,11.59 L9.91,11.59 L8.56,11.59 L8.56,3.81 L11.32,3.81 L9.68,7.5 C9.68,8.7 10.53,9.78 11.84,9.78 C13.18,9.78 14,8.7 14,7.5 L12.17,3.4 L12.17,3 L8.83,3 C8.83,2.42 8.45,2 7.96,2 C7.49,2 7.09,2.39 7.09,3 L3.83,3 Z" transform="translate(-2 -2)" fill-rule="evenodd"/>
</svg>
