<?xml version="1.0" encoding="UTF-8"?>
<svg width="14px" height="14px" viewBox="0 0 14 14" version="1.1" xmlns="http://www.w3.org/2000/svg" xmlns:xlink="http://www.w3.org/1999/xlink">
    <title>缩放</title>
    <g id="sifubuy首页" stroke="none" stroke-width="1" fill="none" fill-rule="evenodd">
        <g id="免单源文件备份-2" transform="translate(-306.000000, -6.000000)" fill="#FFFFFF" fill-rule="nonzero">
            <g id="缩放" transform="translate(306.000000, 6.000000)">
                <path d="M13.412,14 L9.324,14 C8.99733333,14 8.74533333,13.7386667 8.74533333,13.4213333 C8.74533333,13.104 9.00666667,12.8426667 9.324,12.8426667 L12.8333333,12.8426667 L12.8333333,1.176 L1.16666667,1.176 L1.16666667,4.65733333 C1.16666667,4.984 0.905333333,5.24533333 0.578666667,5.24533333 C0.252,5.24533333 0,4.97466667 0,4.65733333 L0,0.588 C0,0.261333333 0.261333333,0 0.588,0 L13.4213333,0 C13.748,0 14,0.261333333 14,0.588 L14,13.4213333 C14,13.7386667 13.7386667,14 13.412,14 Z" id="路径"></path>
                <path d="M6.41666667,14 L0.583333333,14 C0.259259259,14 0,13.7403974 0,13.4251656 L0,7.58410596 C0,7.25960265 0.259259259,7 0.583333333,7 L6.41666667,7 C6.74074074,7 7,7.25960265 7,7.58410596 L7,13.4251656 C7,13.7403974 6.74074074,14 6.41666667,14 L6.41666667,14 Z M1.16666667,12.8410596 L5.84259259,12.8410596 L5.84259259,8.1589404 L1.16666667,8.1589404 L1.16666667,12.8410596 Z" id="形状"></path>
            </g>
        </g>
    </g>
</svg>