<svg width="20" height="20" viewBox="0 0 20 20" fill="none" xmlns="http://www.w3.org/2000/svg">
<path d="M7.86251 0C12.2019 0 15.7197 3.51776 15.7197 7.85714C15.7197 9.7697 15.0363 11.5227 13.9005 12.8852L19.7962 18.7806C20.0751 19.0596 20.0751 19.5118 19.7962 19.7908C19.5482 20.0387 19.1633 20.0663 18.8849 19.8734L18.786 19.7908L12.8905 13.8951C11.528 15.0309 9.77507 15.7143 7.86251 15.7143C3.52313 15.7143 0.00537109 12.1965 0.00537109 7.85714C0.00537109 3.51776 3.52313 0 7.86251 0ZM7.86251 1.42857C4.31211 1.42857 1.43394 4.30674 1.43394 7.85714C1.43394 11.4075 4.31211 14.2857 7.86251 14.2857C11.4129 14.2857 14.2911 11.4075 14.2911 7.85714C14.2911 4.30674 11.4129 1.42857 7.86251 1.42857Z" fill="white"/>
</svg>
