<svg width="20" height="20" viewBox="0 0 20 20" fill="none" xmlns="http://www.w3.org/2000/svg">
<path fill-rule="evenodd" clip-rule="evenodd" d="M15.0591 13.2202C15.0785 13.2374 15.0975 13.2553 15.1161 13.2739L18.9847 17.1425C19.4876 17.6455 19.4804 18.4536 18.9686 18.9475C18.4568 19.4414 17.6341 19.434 17.1312 18.9311L13.2625 15.0624C13.2559 15.0558 13.2494 15.0492 13.243 15.0425C11.8672 16.0509 10.1699 16.6464 8.33337 16.6464C3.74216 16.6464 0.0202427 12.9245 0.0202427 8.33327C0.0202427 3.74206 3.74216 0.0201416 8.33337 0.0201416C12.9246 0.0201416 16.6465 3.74206 16.6465 8.33327C16.6465 10.1597 16.0575 11.8485 15.0591 13.2202ZM2.20206 8.33327C2.20206 4.94704 4.94714 2.20196 8.33337 2.20196C11.7196 2.20196 14.4647 4.94704 14.4647 8.33327C14.4647 11.7195 11.7196 14.4646 8.33337 14.4646C4.94714 14.4646 2.20206 11.7195 2.20206 8.33327Z" fill="white"/>
</svg>
