<?xml version="1.0" encoding="UTF-8"?>
<svg width="18px" height="18px" viewBox="0 0 18 18" version="1.1" xmlns="http://www.w3.org/2000/svg" xmlns:xlink="http://www.w3.org/1999/xlink">
    <title>切片</title>
    <g id="❤️登录&amp;首页&amp;商详" stroke="none" stroke-width="1" fill="none" fill-rule="evenodd">
        <g id="商详" transform="translate(-217.000000, -697.000000)">
            <g id="编组-21" transform="translate(120.000000, 128.000000)">
                <g id="ic_sx_share" transform="translate(97.000000, 569.000000)">
                    <rect id="矩形备份-28" fill="#D8D8D8" opacity="0" x="0" y="0" width="18" height="18"></rect>
                    <g id="ic_nav_share_44" transform="translate(1.350000, 1.350000)">
                        <polygon id="Clip-2" fill="#FFFFFF" opacity="0" points="4.85840006e-17 0 15.3 0 15.3 15.3 4.85840006e-17 15.3"></polygon>
                        <g id="编组-37" transform="translate(1.390909, 0.834540)" fill-rule="nonzero" stroke="#999999" stroke-linecap="round" stroke-linejoin="round" stroke-width="1.2">
                            <path d="M12.5181818,8.12924621 L12.5181818,11.5097782 C12.5181818,12.3739783 11.8176092,13.0745509 10.9534091,13.0745509 L1.56477273,13.0745509 C0.700572613,13.0745509 0,12.3739783 0,11.5097782 L0,2.12114184 C0,1.25694172 0.700572613,0.55636911 1.56477273,0.55636911 L5.19481306,0.55636911" id="路径"></path>
                            <path d="M4.19020327,8.86821874 C4.94957559,4.99397069 7.65780674,2.844966 12.3148967,2.42120468" id="路径-10"></path>
                            <polyline id="路径-11" transform="translate(11.226788, 2.666865) rotate(-13.000000) translate(-11.226788, -2.666865) " points="9.8450636 0.2488468 12.6085132 2.54346313 9.8450636 5.08488368"></polyline>
                        </g>
                    </g>
                </g>
            </g>
        </g>
    </g>
</svg>