<svg width="28" height="28" viewBox="0 0 28 28"  xmlns="http://www.w3.org/2000/svg">
<path d="M14.2832 22.3652C14.7666 22.3652 15.1445 22.1807 15.6104 21.7412L22.5713 15.2109C22.9141 14.8857 23.0459 14.5078 23.0459 14.1826C23.0459 13.8486 22.9141 13.4795 22.5713 13.1543L15.6104 6.66797C15.1006 6.19336 14.7666 6 14.3008 6C13.5977 6 13.0967 6.54492 13.0967 7.23047V10.3594H12.877C6.8125 10.3594 4 14.2529 4 20.6338C4 21.75 4.47461 22.3301 5.08984 22.3301C5.55566 22.3301 5.98633 22.1807 6.3291 21.5391C7.70898 18.9727 9.66895 18.0322 12.877 18.0322H13.0967V21.1787C13.0967 21.8643 13.5977 22.3652 14.2832 22.3652ZM14.8457 20.0977C14.7666 20.0977 14.7139 20.0449 14.7139 19.957V16.7139C14.7139 16.5117 14.626 16.4238 14.4238 16.4238H13.2988C9.27344 16.4238 6.70703 17.6982 5.65234 19.8955C5.62598 19.9482 5.59961 19.9746 5.56445 19.9746C5.5293 19.9746 5.50293 19.9482 5.50293 19.8867C5.64355 15.6943 7.63867 11.959 13.2988 11.959H14.4238C14.626 11.959 14.7139 11.8711 14.7139 11.6689V8.34668C14.7139 8.26758 14.7666 8.21484 14.8457 8.21484C14.8984 8.21484 14.9512 8.24121 14.9951 8.28516L20.998 14.0156C21.0596 14.0859 21.0859 14.1299 21.0859 14.1826C21.0859 14.2354 21.0684 14.2793 20.998 14.3496L14.9863 20.0273C14.9424 20.0713 14.8896 20.0977 14.8457 20.0977Z" />
</svg>
