<svg width="17" height="16" viewBox="0 0 17 16"  xmlns="http://www.w3.org/2000/svg">
<path fill-rule="evenodd" clip-rule="evenodd" d="M11.8546 0.107781C11.4367 0.257028 11.1027 0.543758 9.77992 1.88874C8.52088 3.16899 8.3934 3.37513 8.40196 4.11704C8.40989 4.8099 8.57586 5.0519 10.0503 6.52132C11.2185 7.68561 11.4885 7.91488 11.8228 8.02652C12.8089 8.35598 13.202 8.15496 14.8848 6.4605C16.2714 5.06438 16.5065 4.71883 16.5065 4.07703C16.5065 3.43139 16.2739 3.08848 14.886 1.68788C13.5016 0.290799 13.0778 -0.00513476 12.4688 6.6881e-05C12.2927 0.00150733 12.0163 0.0500026 11.8546 0.107781ZM1.72106 0.787755C1.19577 0.969172 0.887595 1.2567 0.665925 1.77207C0.504034 2.14842 0.496431 2.27398 0.520039 4.18338L0.545007 6.1977L0.760035 6.56342C1.25011 7.39704 1.83133 7.55125 4.29755 7.50203C6.04578 7.46714 6.31114 7.41064 6.77705 6.9737C7.27001 6.5114 7.30362 6.3267 7.30362 4.07703C7.30362 1.78127 7.27225 1.62314 6.72063 1.13883C6.22952 0.70765 5.81947 0.635627 3.8715 0.638588C2.41071 0.640749 2.08029 0.663716 1.72106 0.787755ZM12.8929 0.829688C13.0117 0.892268 13.6911 1.53143 14.4027 2.25014C16.2578 4.12401 16.2599 4.05719 14.2831 6.02165L12.9383 7.35807H12.5195C12.2892 7.35807 12.0035 7.30733 11.8846 7.24523C11.7657 7.18321 11.1232 6.57926 10.4569 5.90321C9.11331 4.54014 8.94381 4.25981 9.14972 3.74109C9.27808 3.41746 11.6552 0.980056 11.9886 0.830168C12.3027 0.688924 12.6251 0.688764 12.8929 0.829688ZM5.88925 1.46589C6.0309 1.52623 6.2368 1.67315 6.34684 1.79231L6.5469 2.00894L6.57107 3.93675C6.59731 6.03261 6.57451 6.17929 6.1703 6.5194L5.93447 6.71786H3.97601C1.76411 6.71786 1.65952 6.6953 1.38607 6.15921C1.23923 5.87136 1.22522 5.68898 1.22522 4.05895C1.22522 2.02999 1.26547 1.86337 1.83373 1.53751C2.12999 1.3677 2.23242 1.35874 3.88862 1.35745C5.18911 1.35649 5.69711 1.38402 5.88925 1.46589ZM1.58533 9.35069C1.15936 9.54836 0.779801 9.96033 0.628473 10.3893C0.449537 10.8964 0.449297 14.3024 0.628153 14.8092C0.787563 15.2611 1.0875 15.5747 1.58533 15.8101C1.97066 15.9922 2.05548 15.9993 3.87598 16C5.98336 16.0009 6.25961 15.9523 6.73368 15.4972C7.30474 14.9491 7.31722 14.8817 7.29081 12.4957L7.26713 10.359L6.99768 9.97089C6.80626 9.69512 6.60932 9.52739 6.31747 9.39151C5.91862 9.20577 5.8486 9.20025 3.90607 9.20121C2.12679 9.20209 1.86998 9.21857 1.58533 9.35069ZM10.1486 9.32453C9.67805 9.56988 9.36619 9.8671 9.19821 10.2303C9.03912 10.5743 9.02768 10.7284 9.02768 12.5197C9.02768 14.6923 9.06993 14.9355 9.52712 15.3942C10.0889 15.9578 10.0898 15.9581 12.3036 15.986C14.0126 16.0076 14.3491 15.9921 14.6475 15.8781C15.139 15.6904 15.4627 15.3913 15.6804 14.9237C15.8606 14.5368 15.8683 14.4438 15.869 12.649C15.8699 10.563 15.8313 10.3296 15.4013 9.8274C14.8918 9.2321 14.7505 9.20233 12.4288 9.20089C10.7334 9.19985 10.3475 9.22073 10.1486 9.32453ZM6.03426 10.0428C6.16606 10.1109 6.34419 10.282 6.43006 10.423C6.57347 10.6581 6.58635 10.8359 6.58659 12.5874C6.58691 14.7282 6.56963 14.8058 6.02305 15.113C5.74441 15.2695 5.60412 15.2806 3.88702 15.2806C2.1095 15.2806 2.0402 15.2746 1.77724 15.0989C1.26659 14.7578 1.22546 14.5719 1.22538 12.605C1.22522 11.0224 1.24075 10.8176 1.38279 10.5243C1.66568 9.94 1.7345 9.92343 3.89006 9.92103C5.45599 9.91927 5.83723 9.94088 6.03426 10.0428ZM14.7462 10.1956C15.1242 10.5581 15.1633 10.8168 15.1351 12.7742C15.1114 14.421 15.0977 14.5654 14.9439 14.7748C14.6014 15.241 14.4075 15.2803 12.4456 15.2804C10.8487 15.2806 10.6307 15.2646 10.3649 15.1281C9.81321 14.8449 9.78792 14.7342 9.78792 12.6034C9.78792 10.5075 9.81569 10.368 10.292 10.0735C10.5319 9.92511 10.6732 9.91647 12.5237 9.93696L14.4992 9.95889L14.7462 10.1956Z" />
</svg>
