<?xml version="1.0" encoding="UTF-8"?>
<svg width="13px" height="12px" viewBox="0 0 13 12" version="1.1" xmlns="http://www.w3.org/2000/svg" xmlns:xlink="http://www.w3.org/1999/xlink">
    <title>通知 (1)</title>
    <g id="sifubuy首页" stroke="none" stroke-width="1" fill="none" fill-rule="evenodd">
        <g id="免单源文件备份-2" transform="translate(-54.000000, -350.000000)" fill="#FFFFFF" fill-rule="nonzero">
            <g id="免单备份" transform="translate(0.000000, -1.000000)">
                <g id="编组-2" transform="translate(12.000000, 344.000000)">
                    <g id="编组-4" transform="translate(42.000000, 4.000000)">
                        <g id="通知-(1)" transform="translate(0.000000, 3.000000)">
                            <path d="M7.73412245,0.178872906 L2.93282449,3.2687085 L1.07755103,3.2687085 C0.482436033,3.2687085 0,3.71337789 0,4.2619054 L0,7.7380946 C0,8.28662211 0.482436033,8.7312915 1.07755103,8.7312915 L2.93282449,8.7312915 L7.73412245,11.8211271 C8.06338266,12.0330358 8.49317301,12.0585992 8.84925122,11.8874534 C9.20532943,11.7163077 9.42857143,11.3768519 9.42857143,11.0067056 L9.42857143,0.993294364 C9.42857143,0.623148099 9.20532943,0.283692324 8.84925122,0.112546577 C8.49317301,-0.0585991688 8.06338266,-0.0330358286 7.73412245,0.178872906 Z M3.54972246,4.08312996 L8.35102042,0.993294364 L8.35102042,11.0067056 L3.54972246,7.91687004 C3.36879711,7.80046949 3.15346516,7.73806685 2.93282449,7.7380946 L1.07755103,7.7380946 L1.07755103,4.2619054 L2.93282449,4.2619054 C3.15346516,4.26193315 3.36879711,4.19953051 3.54972246,4.08312996 Z" id="形状"></path>
                            <path d="M12.0234415,2.57142857 C12.5585188,3.52265049 12.8571429,4.75749607 12.8571429,6.06364366 C12.8571429,7.26336638 12.6051469,8.40340665 12.1485476,9.3197698 L12.0924919,9.42857143 L11.1981485,8.922327 C11.6055716,8.14883198 11.8376932,7.13977619 11.8376932,6.06364366 C11.8376932,4.98354991 11.6032784,3.97132514 11.1948361,3.19862238 L11.1428571,3.10355301 L12.0234415,2.57142857 Z" id="路径"></path>
                        </g>
                    </g>
                </g>
            </g>
        </g>
    </g>
</svg>