<svg width="20" height="20" viewBox="0 0 20 20" fill="none" xmlns="http://www.w3.org/2000/svg">
<path d="M1.02217 3.5C1.02217 2.00883 2.231 0.8 3.72217 0.8H7.72217C8.66105 0.8 9.42217 1.56112 9.42217 2.5V7.5C9.42217 8.43888 8.66105 9.2 7.72217 9.2H2.72217C1.78328 9.2 1.02217 8.43888 1.02217 7.5V3.5Z" stroke="black" stroke-width="0.6"/>
<path d="M11.0222 2.5C11.0222 1.56112 11.7833 0.8 12.7222 0.8H16.7222C18.2133 0.8 19.4222 2.00883 19.4222 3.5V7.5C19.4222 8.43888 18.6611 9.2 17.7222 9.2H12.7222C11.7833 9.2 11.0222 8.43888 11.0222 7.5V2.5Z" stroke="black" stroke-width="0.6"/>
<path d="M1.02217 12.5C1.02217 11.5611 1.78328 10.8 2.72217 10.8H7.72217C8.66105 10.8 9.42217 11.5611 9.42217 12.5V17.5C9.42217 18.4389 8.66105 19.2 7.72217 19.2H3.72217C2.231 19.2 1.02217 17.9912 1.02217 16.5V12.5Z" stroke="black" stroke-width="0.6"/>
<circle cx="15.2222" cy="15" r="4.3" stroke="black" stroke-width="0.4" stroke-miterlimit="4.13357" stroke-dasharray="0.5 0.5"/>
</svg>
