<svg width="7" height="10" viewBox="0 0 7 10" xmlns="http://www.w3.org/2000/svg">
<path d="M4.93071 -0.00800049H6.09671V0.85H6.99871V1.532H6.09671V8H5.00771V7.318C4.60438 7.87533 4.01771 8.154 3.24771 8.154C2.41171 8.154 1.75538 7.857 1.27871 7.263C0.838711 6.713 0.618711 6.00167 0.618711 5.129C0.618711 4.28567 0.835044 3.59267 1.26771 3.05C1.72971 2.456 2.37138 2.159 3.19271 2.159C3.88938 2.159 4.46871 2.49267 4.93071 3.16V1.532H3.09371V0.85H4.93071V-0.00800049ZM3.45671 3.105C2.87738 3.105 2.45204 3.29933 2.18071 3.688C1.93871 4.018 1.81771 4.49833 1.81771 5.129C1.81771 5.75967 1.93138 6.24733 2.15871 6.592C2.42271 7.00267 2.84438 7.208 3.42371 7.208C3.91504 7.208 4.30738 7.00633 4.60071 6.603C4.84271 6.251 4.96371 5.78533 4.96371 5.206V5.107C4.96371 4.49833 4.81704 4.00333 4.52371 3.622C4.24504 3.27733 3.88938 3.105 3.45671 3.105ZM1.89471 9.012H5.29371V9.716H1.89471V9.012Z" />
</svg>
